<mxfile host="app.diagrams.net" modified="2023-10-09T02:43:01.575Z" agent="Mozilla/5.0 (Windows NT 10.0; Win64; x64; rv:109.0) Gecko/20100101 Firefox/118.0" etag="tHo-MAOohFZywSts7HHr" version="22.0.4" type="github">
  <diagram id="C5RBs43oDa-KdzZeNtuy" name="Page-1">
    <mxGraphModel dx="880" dy="470" grid="1" gridSize="10" guides="1" tooltips="1" connect="1" arrows="1" fold="1" page="1" pageScale="1" pageWidth="827" pageHeight="1169" math="0" shadow="0">
      <root>
        <mxCell id="WIyWlLk6GJQsqaUBKTNV-0" />
        <mxCell id="WIyWlLk6GJQsqaUBKTNV-1" parent="WIyWlLk6GJQsqaUBKTNV-0" />
        <mxCell id="f5Sax4noel5yTNCNldTa-56" value="" style="edgeStyle=orthogonalEdgeStyle;rounded=0;orthogonalLoop=1;jettySize=auto;html=1;" edge="1" parent="WIyWlLk6GJQsqaUBKTNV-1" source="f5Sax4noel5yTNCNldTa-5" target="f5Sax4noel5yTNCNldTa-37">
          <mxGeometry relative="1" as="geometry" />
        </mxCell>
        <mxCell id="f5Sax4noel5yTNCNldTa-5" value="ANGKA 1-100" style="shape=parallelogram;perimeter=parallelogramPerimeter;whiteSpace=wrap;html=1;fixedSize=1;" vertex="1" parent="WIyWlLk6GJQsqaUBKTNV-1">
          <mxGeometry x="320" y="520" width="120" height="60" as="geometry" />
        </mxCell>
        <mxCell id="f5Sax4noel5yTNCNldTa-54" value="" style="edgeStyle=orthogonalEdgeStyle;rounded=0;orthogonalLoop=1;jettySize=auto;html=1;" edge="1" parent="WIyWlLk6GJQsqaUBKTNV-1" source="f5Sax4noel5yTNCNldTa-31" target="f5Sax4noel5yTNCNldTa-5">
          <mxGeometry relative="1" as="geometry" />
        </mxCell>
        <mxCell id="f5Sax4noel5yTNCNldTa-31" value="STAR" style="rounded=1;whiteSpace=wrap;html=1;" vertex="1" parent="WIyWlLk6GJQsqaUBKTNV-1">
          <mxGeometry x="350" y="440" width="60" height="40" as="geometry" />
        </mxCell>
        <mxCell id="f5Sax4noel5yTNCNldTa-37" value="TEBAKAN" style="shape=parallelogram;perimeter=parallelogramPerimeter;whiteSpace=wrap;html=1;fixedSize=1;" vertex="1" parent="WIyWlLk6GJQsqaUBKTNV-1">
          <mxGeometry x="320" y="610" width="120" height="60" as="geometry" />
        </mxCell>
        <mxCell id="f5Sax4noel5yTNCNldTa-45" style="edgeStyle=orthogonalEdgeStyle;rounded=0;orthogonalLoop=1;jettySize=auto;html=1;exitX=0;exitY=0.5;exitDx=0;exitDy=0;" edge="1" parent="WIyWlLk6GJQsqaUBKTNV-1" source="f5Sax4noel5yTNCNldTa-38">
          <mxGeometry relative="1" as="geometry">
            <mxPoint x="170" y="1280" as="targetPoint" />
            <mxPoint x="310" y="850" as="sourcePoint" />
          </mxGeometry>
        </mxCell>
        <mxCell id="f5Sax4noel5yTNCNldTa-50" value="" style="edgeStyle=orthogonalEdgeStyle;rounded=0;orthogonalLoop=1;jettySize=auto;html=1;" edge="1" parent="WIyWlLk6GJQsqaUBKTNV-1" source="f5Sax4noel5yTNCNldTa-38" target="f5Sax4noel5yTNCNldTa-49">
          <mxGeometry relative="1" as="geometry">
            <Array as="points">
              <mxPoint x="360" y="830" />
              <mxPoint x="360" y="830" />
            </Array>
          </mxGeometry>
        </mxCell>
        <mxCell id="f5Sax4noel5yTNCNldTa-43" style="edgeStyle=orthogonalEdgeStyle;rounded=0;orthogonalLoop=1;jettySize=auto;html=1;exitX=0.5;exitY=0;exitDx=0;exitDy=0;entryX=0.663;entryY=-0.037;entryDx=0;entryDy=0;entryPerimeter=0;" edge="1" parent="WIyWlLk6GJQsqaUBKTNV-1" source="f5Sax4noel5yTNCNldTa-38" target="f5Sax4noel5yTNCNldTa-38">
          <mxGeometry relative="1" as="geometry" />
        </mxCell>
        <mxCell id="f5Sax4noel5yTNCNldTa-58" value="" style="edgeStyle=orthogonalEdgeStyle;rounded=0;orthogonalLoop=1;jettySize=auto;html=1;" edge="1" parent="WIyWlLk6GJQsqaUBKTNV-1" source="f5Sax4noel5yTNCNldTa-49">
          <mxGeometry relative="1" as="geometry">
            <mxPoint x="480" y="970" as="targetPoint" />
          </mxGeometry>
        </mxCell>
        <mxCell id="f5Sax4noel5yTNCNldTa-71" value="T/YES" style="edgeLabel;html=1;align=center;verticalAlign=middle;resizable=0;points=[];" vertex="1" connectable="0" parent="f5Sax4noel5yTNCNldTa-58">
          <mxGeometry x="-0.1056" relative="1" as="geometry">
            <mxPoint as="offset" />
          </mxGeometry>
        </mxCell>
        <mxCell id="f5Sax4noel5yTNCNldTa-49" value="TEBAKAN ANGKA" style="rhombus;whiteSpace=wrap;html=1;" vertex="1" parent="WIyWlLk6GJQsqaUBKTNV-1">
          <mxGeometry x="320" y="930" width="80" height="80" as="geometry" />
        </mxCell>
        <mxCell id="f5Sax4noel5yTNCNldTa-51" value="" style="endArrow=classic;html=1;rounded=0;exitX=0.5;exitY=1;exitDx=0;exitDy=0;" edge="1" parent="WIyWlLk6GJQsqaUBKTNV-1" source="f5Sax4noel5yTNCNldTa-49">
          <mxGeometry width="50" height="50" relative="1" as="geometry">
            <mxPoint x="390" y="1010" as="sourcePoint" />
            <mxPoint x="360" y="1070" as="targetPoint" />
          </mxGeometry>
        </mxCell>
        <mxCell id="f5Sax4noel5yTNCNldTa-52" value="F/NO" style="edgeLabel;html=1;align=center;verticalAlign=middle;resizable=0;points=[];" vertex="1" connectable="0" parent="f5Sax4noel5yTNCNldTa-51">
          <mxGeometry x="0.0333" y="2" relative="1" as="geometry">
            <mxPoint as="offset" />
          </mxGeometry>
        </mxCell>
        <mxCell id="f5Sax4noel5yTNCNldTa-67" style="edgeStyle=orthogonalEdgeStyle;rounded=0;orthogonalLoop=1;jettySize=auto;html=1;entryX=0;entryY=0.5;entryDx=0;entryDy=0;" edge="1" parent="WIyWlLk6GJQsqaUBKTNV-1" source="f5Sax4noel5yTNCNldTa-53" target="f5Sax4noel5yTNCNldTa-65">
          <mxGeometry relative="1" as="geometry" />
        </mxCell>
        <mxCell id="f5Sax4noel5yTNCNldTa-69" value="" style="edgeStyle=orthogonalEdgeStyle;rounded=0;orthogonalLoop=1;jettySize=auto;html=1;" edge="1" parent="WIyWlLk6GJQsqaUBKTNV-1" source="f5Sax4noel5yTNCNldTa-53" target="f5Sax4noel5yTNCNldTa-68">
          <mxGeometry relative="1" as="geometry" />
        </mxCell>
        <mxCell id="f5Sax4noel5yTNCNldTa-53" value="SALAH" style="rhombus;whiteSpace=wrap;html=1;" vertex="1" parent="WIyWlLk6GJQsqaUBKTNV-1">
          <mxGeometry x="320" y="1070" width="80" height="80" as="geometry" />
        </mxCell>
        <mxCell id="f5Sax4noel5yTNCNldTa-55" value="" style="endArrow=classic;html=1;rounded=0;exitX=0.5;exitY=1;exitDx=0;exitDy=0;" edge="1" parent="WIyWlLk6GJQsqaUBKTNV-1" source="f5Sax4noel5yTNCNldTa-37" target="f5Sax4noel5yTNCNldTa-38">
          <mxGeometry width="50" height="50" relative="1" as="geometry">
            <mxPoint x="380" y="690" as="sourcePoint" />
            <mxPoint x="370" y="820" as="targetPoint" />
          </mxGeometry>
        </mxCell>
        <mxCell id="f5Sax4noel5yTNCNldTa-61" style="edgeStyle=orthogonalEdgeStyle;rounded=0;orthogonalLoop=1;jettySize=auto;html=1;" edge="1" parent="WIyWlLk6GJQsqaUBKTNV-1">
          <mxGeometry relative="1" as="geometry">
            <mxPoint x="720" y="1120" as="targetPoint" />
            <mxPoint x="420" y="750" as="sourcePoint" />
          </mxGeometry>
        </mxCell>
        <mxCell id="f5Sax4noel5yTNCNldTa-38" value="MENEBAK" style="whiteSpace=wrap;html=1;aspect=fixed;" vertex="1" parent="WIyWlLk6GJQsqaUBKTNV-1">
          <mxGeometry x="340" y="700" width="80" height="80" as="geometry" />
        </mxCell>
        <mxCell id="f5Sax4noel5yTNCNldTa-60" style="rounded=0;orthogonalLoop=1;jettySize=auto;html=1;exitX=0.87;exitY=0.5;exitDx=0;exitDy=0;exitPerimeter=0;edgeStyle=orthogonalEdgeStyle;" edge="1" parent="WIyWlLk6GJQsqaUBKTNV-1" source="f5Sax4noel5yTNCNldTa-59">
          <mxGeometry relative="1" as="geometry">
            <mxPoint x="800" y="1360" as="targetPoint" />
          </mxGeometry>
        </mxCell>
        <mxCell id="f5Sax4noel5yTNCNldTa-59" value="MENANG" style="shape=dataStorage;whiteSpace=wrap;html=1;fixedSize=1;" vertex="1" parent="WIyWlLk6GJQsqaUBKTNV-1">
          <mxGeometry x="480" y="930" width="100" height="60" as="geometry" />
        </mxCell>
        <mxCell id="f5Sax4noel5yTNCNldTa-64" style="edgeStyle=orthogonalEdgeStyle;rounded=0;orthogonalLoop=1;jettySize=auto;html=1;exitX=0.5;exitY=1;exitDx=0;exitDy=0;" edge="1" parent="WIyWlLk6GJQsqaUBKTNV-1">
          <mxGeometry relative="1" as="geometry">
            <mxPoint x="590" y="1150" as="sourcePoint" />
            <mxPoint x="590" y="1150" as="targetPoint" />
          </mxGeometry>
        </mxCell>
        <mxCell id="f5Sax4noel5yTNCNldTa-65" value="ANGKA LEBIH BESAR" style="whiteSpace=wrap;html=1;aspect=fixed;" vertex="1" parent="WIyWlLk6GJQsqaUBKTNV-1">
          <mxGeometry x="540" y="1070" width="80" height="80" as="geometry" />
        </mxCell>
        <mxCell id="f5Sax4noel5yTNCNldTa-66" value="" style="endArrow=classic;html=1;rounded=0;entryX=1.063;entryY=0.588;entryDx=0;entryDy=0;entryPerimeter=0;" edge="1" parent="WIyWlLk6GJQsqaUBKTNV-1" target="f5Sax4noel5yTNCNldTa-65">
          <mxGeometry width="50" height="50" relative="1" as="geometry">
            <mxPoint x="720" y="1117" as="sourcePoint" />
            <mxPoint x="440" y="1080" as="targetPoint" />
          </mxGeometry>
        </mxCell>
        <mxCell id="f5Sax4noel5yTNCNldTa-75" value="" style="edgeStyle=orthogonalEdgeStyle;rounded=0;orthogonalLoop=1;jettySize=auto;html=1;" edge="1" parent="WIyWlLk6GJQsqaUBKTNV-1" source="f5Sax4noel5yTNCNldTa-68" target="f5Sax4noel5yTNCNldTa-74">
          <mxGeometry relative="1" as="geometry" />
        </mxCell>
        <mxCell id="f5Sax4noel5yTNCNldTa-68" value="ANGKA LEBIH KECIL" style="whiteSpace=wrap;html=1;" vertex="1" parent="WIyWlLk6GJQsqaUBKTNV-1">
          <mxGeometry x="320" y="1240" width="80" height="60" as="geometry" />
        </mxCell>
        <mxCell id="f5Sax4noel5yTNCNldTa-73" value="" style="endArrow=classic;html=1;rounded=0;entryX=-0.05;entryY=0.633;entryDx=0;entryDy=0;entryPerimeter=0;" edge="1" parent="WIyWlLk6GJQsqaUBKTNV-1" target="f5Sax4noel5yTNCNldTa-68">
          <mxGeometry width="50" height="50" relative="1" as="geometry">
            <mxPoint x="170" y="1280" as="sourcePoint" />
            <mxPoint x="440" y="1080" as="targetPoint" />
          </mxGeometry>
        </mxCell>
        <mxCell id="f5Sax4noel5yTNCNldTa-74" value="FINISH" style="rounded=1;whiteSpace=wrap;html=1;" vertex="1" parent="WIyWlLk6GJQsqaUBKTNV-1">
          <mxGeometry x="320" y="1340" width="80" height="40" as="geometry" />
        </mxCell>
        <mxCell id="f5Sax4noel5yTNCNldTa-76" value="" style="endArrow=classic;html=1;rounded=0;entryX=1;entryY=0.5;entryDx=0;entryDy=0;" edge="1" parent="WIyWlLk6GJQsqaUBKTNV-1" target="f5Sax4noel5yTNCNldTa-74">
          <mxGeometry width="50" height="50" relative="1" as="geometry">
            <mxPoint x="800" y="1360" as="sourcePoint" />
            <mxPoint x="440" y="1170" as="targetPoint" />
          </mxGeometry>
        </mxCell>
      </root>
    </mxGraphModel>
  </diagram>
</mxfile>
